<?xml version="1.0" encoding="iso-8859-1"?>
<!-- Uploaded to: SVG Repo, www.svgrepo.com, Generator: SVG Repo Mixer Tools -->
<svg fill="#000000" height="800px" width="800px" version="1.1" id="Layer_1" xmlns="http://www.w3.org/2000/svg" xmlns:xlink="http://www.w3.org/1999/xlink" 
	 viewBox="0 0 512 512" xml:space="preserve">
<g>
	<g>
		<path d="M442.182,104.727h-81.455c-6.982,0-11.636-4.655-11.636-11.636V58.182c0-6.982-4.655-11.636-11.636-11.636
			c-6.982,0-11.636,4.655-11.636,11.636v34.909c0,19.782,15.127,34.909,34.909,34.909h69.818v349.091
			c0,6.982-4.655,11.636-11.636,11.636H93.091c-6.982,0-11.636-4.655-11.636-11.636V34.909c0-6.982,4.655-11.636,11.636-11.636
			H332.8L399.127,89.6c4.655,4.655,11.636,4.655,16.291,0c4.655-4.655,4.655-11.636,0-16.291L345.6,3.491
			C343.273,1.164,340.945,0,337.455,0H93.091C73.309,0,58.182,15.127,58.182,34.909v442.182c0,19.782,15.127,34.909,34.909,34.909
			h325.818c19.782,0,34.909-15.127,34.909-34.909V116.364C453.818,109.382,449.164,104.727,442.182,104.727z"/>
	</g>
</g>
<g>
	<g>
		<path d="M384,267.636H244.364c-6.982,0-11.636,4.655-11.636,11.636c0,6.982,4.655,11.636,11.636,11.636H384
			c6.982,0,11.636-4.655,11.636-11.636C395.636,272.291,390.982,267.636,384,267.636z"/>
	</g>
</g>
<g>
	<g>
		<path d="M314.182,314.182h-69.818c-6.982,0-11.636,4.655-11.636,11.636s4.655,11.636,11.636,11.636h69.818
			c6.982,0,11.636-4.655,11.636-11.636S321.164,314.182,314.182,314.182z"/>
	</g>
</g>
<g>
	<g>
		<path d="M360.727,162.909H244.364c-6.982,0-11.636,4.655-11.636,11.636s4.655,11.636,11.636,11.636h116.364
			c6.982,0,11.636-4.655,11.636-11.636S367.709,162.909,360.727,162.909z"/>
	</g>
</g>
<g>
	<g>
		<path d="M279.273,209.455h-34.909c-6.982,0-11.636,4.655-11.636,11.636c0,6.982,4.655,11.636,11.636,11.636h34.909
			c6.982,0,11.636-4.655,11.636-11.636C290.909,214.109,286.255,209.455,279.273,209.455z"/>
	</g>
</g>
<g>
	<g>
		<path d="M349.091,372.364H244.364c-6.982,0-11.636,4.655-11.636,11.636s4.655,11.636,11.636,11.636h104.727
			c6.982,0,11.636-4.655,11.636-11.636S356.073,372.364,349.091,372.364z"/>
	</g>
</g>
<g>
	<g>
		<path d="M302.545,418.909h-58.182c-6.982,0-11.636,4.655-11.636,11.636s4.655,11.636,11.636,11.636h58.182
			c6.982,0,11.636-4.655,11.636-11.636S309.527,418.909,302.545,418.909z"/>
	</g>
</g>
<g>
	<g>
		<path d="M186.182,267.636h-46.545c-6.982,0-11.636,4.655-11.636,11.636v46.545c0,6.982,4.655,11.636,11.636,11.636h46.545
			c6.982,0,11.636-4.655,11.636-11.636v-46.545C197.818,272.291,193.164,267.636,186.182,267.636z M174.545,314.182h-23.273v-23.273
			h23.273V314.182z"/>
	</g>
</g>
<g>
	<g>
		<path d="M186.182,162.909h-46.545c-6.982,0-11.636,4.655-11.636,11.636v46.545c0,6.982,4.655,11.636,11.636,11.636h46.545
			c6.982,0,11.636-4.655,11.636-11.636v-46.545C197.818,167.564,193.164,162.909,186.182,162.909z M174.545,209.455h-23.273v-23.273
			h23.273V209.455z"/>
	</g>
</g>
<g>
	<g>
		<path d="M186.182,372.364h-46.545c-6.982,0-11.636,4.655-11.636,11.636v46.545c0,6.982,4.655,11.636,11.636,11.636h46.545
			c6.982,0,11.636-4.655,11.636-11.636V384C197.818,377.018,193.164,372.364,186.182,372.364z M174.545,418.909h-23.273v-23.273
			h23.273V418.909z"/>
	</g>
</g>
</svg>